<?xml version="1.0" encoding="utf-8"?>
<!-- Generator: Adobe Illustrator 20.1.0, SVG Export Plug-In . SVG Version: 6.00 Build 0)  -->
<svg version="1.1" id="svg1936" xmlns:svg="http://www.w3.org/2000/svg"
	 xmlns="http://www.w3.org/2000/svg" xmlns:xlink="http://www.w3.org/1999/xlink" x="0px" y="0px" viewBox="0 0 602.3 181.5"
	 style="enable-background:new 0 0 602.3 181.5;" xml:space="preserve">
<style type="text/css">
	.st0{fill:#FF9900;}
	.st1{fill:#221F1F;}
</style>
<g id="layer1" transform="translate(151.616,-642.7961)">
	<g id="g1967" transform="translate(7.081691,7.081144)">
		<path id="path8" class="st0" d="M214.9,777.7c-35,25.8-85.7,39.6-129.4,39.6c-61.2,0-116.4-22.7-158.1-60.3c-3.3-3-0.3-7,3.6-4.7
			c45,26.2,100.7,41.9,158.2,41.9c38.8,0,81.4-8,120.6-24.7C215.8,767,220.7,773.4,214.9,777.7"/>
		<path id="path10" class="st0" d="M229.5,761c-4.5-5.7-29.6-2.7-40.8-1.4c-3.4,0.4-4-2.6-0.9-4.7c20-14.1,52.8-10,56.7-5.3
			c3.8,4.7-1,37.6-19.8,53.4c-2.9,2.4-5.6,1.1-4.4-2.1C224.5,790.4,234,766.7,229.5,761"/>
		<path id="path12" class="st1" d="M189.4,655.5v-13.7c0-2.1,1.6-3.5,3.5-3.5h61.3c2,0,3.5,1.4,3.5,3.5v11.7c0,2-1.7,4.5-4.6,8.6
			l-31.7,45.3c11.8-0.3,24.3,1.5,34.9,7.5c2.4,1.4,3.1,3.4,3.3,5.3v14.6c0,2-2.2,4.3-4.5,3.1c-18.8-9.9-43.9-11-64.7,0.1
			c-2.1,1.2-4.4-1.2-4.4-3.1v-13.9c0-2.2,0-6,2.3-9.4L225,659h-32C191,659,189.4,657.6,189.4,655.5"/>
		<path id="path14" class="st1" d="M-34.1,740.9h-18.6c-1.8-0.1-3.2-1.5-3.3-3.2v-95.7c0-1.9,1.6-3.4,3.6-3.4h17.4
			c1.8,0.1,3.3,1.5,3.4,3.2v12.5h0.3c4.5-12.1,13.1-17.7,24.5-17.7c11.7,0,19,5.6,24.2,17.7c4.5-12.1,14.8-17.7,25.7-17.7
			c7.8,0,16.4,3.2,21.6,10.5c5.9,8,4.7,19.7,4.7,30l0,60.4c0,1.9-1.6,3.5-3.6,3.5H47.2c-1.9-0.1-3.4-1.6-3.4-3.5v-50.7
			c0-4,0.4-14.1-0.5-17.9c-1.4-6.4-5.6-8.2-11-8.2c-4.5,0-9.2,3-11.1,7.8s-1.7,12.9-1.7,18.3v50.7c0,1.9-1.6,3.5-3.6,3.5H-2.7
			c-1.9-0.1-3.4-1.6-3.4-3.5l0-50.7c0-10.7,1.8-26.4-11.5-26.4c-13.4,0-12.9,15.3-12.9,26.4v50.7C-30.5,739.4-32.1,740.9-34.1,740.9
			"/>
		<path id="path16" class="st1" d="M310.5,636.6c27.7,0,42.6,23.8,42.6,54c0,29.2-16.5,52.3-42.6,52.3c-27.2,0-41.9-23.8-41.9-53.4
			C268.5,659.8,283.5,636.6,310.5,636.6 M310.6,656.2c-13.7,0-14.6,18.7-14.6,30.4c0,11.7-0.2,36.7,14.4,36.7
			c14.4,0,15.1-20.1,15.1-32.4c0-8.1-0.3-17.7-2.8-25.4C320.7,658.8,316.5,656.2,310.6,656.2"/>
		<path id="path18" class="st1" d="M388.9,740.9h-18.6c-1.9-0.1-3.4-1.6-3.4-3.5l0-95.7c0.2-1.8,1.7-3.1,3.6-3.1h17.3
			c1.6,0.1,3,1.2,3.3,2.7V656h0.3c5.2-13.1,12.5-19.3,25.4-19.3c8.4,0,16.5,3,21.8,11.3c4.9,7.7,4.9,20.5,4.9,29.8v60.2
			c-0.2,1.7-1.8,3-3.6,3h-18.7c-1.7-0.1-3.1-1.4-3.3-3v-52c0-10.5,1.2-25.8-11.7-25.8c-4.5,0-8.7,3-10.8,7.7c-2.6,5.8-3,11.7-3,18.1
			v51.5C392.6,739.4,390.9,740.9,388.9,740.9"/>
		<path class="st1" d="M173.8,723.4c-3.4-4.7-7-8.5-7-17.3v-29c0-12.3,0.9-23.6-8.2-32.1c-7.2-6.9-19-9.3-28.1-9.3
			c-17.7,0-37.5,6.6-41.7,28.5c-0.4,2.3,1.3,3.6,2.8,3.9l18.1,1.9c1.7-0.1,2.9-1.7,3.3-3.4c1.5-7.6,7.9-11.2,15-11.2
			c3.9,0,8.2,1.4,10.5,4.9c2.6,3.8,2.3,9.1,2.3,13.5v2.4c-10.8,1.2-24.9,2-35.1,6.5c-11.7,5-19.9,15.3-19.9,30.5
			c0,19.4,12.2,29,27.9,29c13.2,0,20.5-3.1,30.7-13.6c3.4,4.9,4.5,7.3,10.7,12.4c1.4,0.7,3.2,0.7,4.4-0.4v0h0l0,0l0,0.1
			c3.7-3.3,10.5-9.2,14.3-12.4C175.2,727.1,175,725.1,173.8,723.4z M137.1,715c-3,5.2-7.7,8.5-12.9,8.5c-7.2,0-11.4-5.5-11.4-13.5
			c0-15.9,14.2-18.8,27.7-18.8v4C140.6,702.5,140.8,708.5,137.1,715z"/>
		<path class="st1" d="M-70.6,723.4c-3.4-4.7-7-8.5-7-17.3v-29c0-12.3,0.9-23.6-8.2-32.1c-7.2-6.9-19-9.3-28.1-9.3
			c-17.7,0-37.5,6.6-41.7,28.5c-0.4,2.3,1.3,3.6,2.8,3.9l18.1,1.9c1.7-0.1,2.9-1.7,3.2-3.4c1.5-7.6,7.9-11.2,15-11.2
			c3.8,0,8.2,1.4,10.5,4.9c2.6,3.8,2.3,9.1,2.3,13.5v2.4c-10.8,1.2-24.9,2-35.1,6.5c-11.7,5-19.9,15.3-19.9,30.5
			c0,19.4,12.2,29,27.9,29c13.3,0,20.5-3.1,30.7-13.6c3.4,4.9,4.5,7.3,10.7,12.4c1.4,0.7,3.2,0.7,4.4-0.4l0.1,0.1
			c3.7-3.3,10.5-9.2,14.3-12.4C-69.1,727.1-69.4,725.1-70.6,723.4z M-107.3,715c-3,5.2-7.7,8.5-12.9,8.5c-7.2,0-11.3-5.5-11.3-13.5
			c0-15.9,14.2-18.8,27.7-18.8v4l0,0C-103.8,702.5-103.6,708.5-107.3,715z"/>
	</g>
</g>
</svg>
