<?xml version="1.0" ?><svg height="64px" id="svg33673" width="64px" xmlns="http://www.w3.org/2000/svg" xmlns:cc="http://web.resource.org/cc/" xmlns:dc="http://purl.org/dc/elements/1.1/" xmlns:inkscape="http://www.inkscape.org/namespaces/inkscape" xmlns:rdf="http://www.w3.org/1999/02/22-rdf-syntax-ns#" xmlns:sodipodi="http://sodipodi.sourceforge.net/DTD/sodipodi-0.dtd" xmlns:svg="http://www.w3.org/2000/svg"><defs id="defs33675"/><g id="layer1"><g id="g33658" transform="matrix(4.9230777,0,0,4.9230777,-1078.154,-214.15388)"><path d="M 224.7027,45.545351 L 225.04535,45.545351 L 230.38642,45.545351 C 230.98787,45.545351 231.45465,46.003445 231.45465,46.659013 L 231.45465,53.340986 C 231.45465,53.999829 230.99649,54.454649 230.38642,54.454649 L 225.04535,54.454649 L 224.7027,45.545351 z " id="path32681" style="fill:#ffffff;fill-opacity:1;fill-rule:evenodd;stroke:#949494;stroke-width:1.09070206px;stroke-linecap:butt;stroke-linejoin:miter;stroke-opacity:1"/><rect height="1" id="rect32683" ry="0" style="opacity:1;fill:#8093bc;fill-opacity:1;fill-rule:nonzero;stroke:#949494;stroke-width:0;stroke-linecap:round;stroke-linejoin:round;stroke-miterlimit:4;stroke-dasharray:none;stroke-dashoffset:0;stroke-opacity:1" width="5" x="225" y="47"/><rect height="1" id="rect33654" ry="0" style="opacity:1;fill:#cacaca;fill-opacity:1;fill-rule:nonzero;stroke:#949494;stroke-width:0;stroke-linecap:round;stroke-linejoin:round;stroke-miterlimit:4;stroke-dasharray:none;stroke-dashoffset:0;stroke-opacity:1" width="5" x="225" y="49"/><rect height="1" id="rect33656" ry="0" style="opacity:1;fill:#cacaca;fill-opacity:1;fill-rule:nonzero;stroke:#949494;stroke-width:0;stroke-linecap:round;stroke-linejoin:round;stroke-miterlimit:4;stroke-dasharray:none;stroke-dashoffset:0;stroke-opacity:1" width="5" x="225" y="51"/><path d="M 219.1717,54.828303 L 228.82831,54.828303 L 228.82831,53.460644 C 228.82831,52.437065 224.80919,53.110824 225.91598,49.015746 C 227.30126,43.890149 221.06929,43.890549 222.45449,49.015746 C 223.56222,53.114424 219.1717,52.421065 219.1717,53.460644 L 219.1717,54.828303 z " id="path18805" style="fill:#405d9b;fill-opacity:1;fill-rule:evenodd;stroke:#546ea5;stroke-width:0.34339398px;stroke-linecap:butt;stroke-linejoin:miter;stroke-opacity:1"/></g></g></svg>